<svg id="Слой_1" data-name="Слой 1" xmlns="http://www.w3.org/2000/svg" viewBox="0 0 500 500"><title>Head_Dog</title><path d="M227.06,22.89c0,22.7,9.78,49.16-.71,71.57-4,8.62-14.06,8.89-31.89,18.72-65.56,36.13-36.6,56.4-63.76,68.77-3.83,1.74-7.12,2.9-10.87,4.79s-7.09,3.56-11.24,5.63c-30.53,15.27-20.17,11.31-41.5,24.76-12,7.54-29.89,6.7-2.38,34.38,6.19,6.22,11.36,10.05,18.74,15,33.61,22.54,52,22,87.69,14.92,22.58-4.46,46-12.05,65.57-22.39L248.28,274c3.7,5.5,6.53,10.86,9.75,16.76,17,31.06,13.61,37.45,13.61,74.34,0,18.84-17.79,134.94-7.22,134.94,100.11,0,208.44-156.23,159-248.2-3.32-6.18-7.26-11.47-11.32-17.59l-60.44-87.75c-5.77-7.43-21.62-19.7-30.36-27.47-2.63-2.34-5.06-4.14-7.92-6.54-5-4.2-3.18-2-6.63-7.83-1.92-3.28-3.19-6.05-5.24-9.22C285.81,71,288.05,75.22,268.32,53.93c-5-5.37-22-29-22-37.06,0-4.75,9-16.87-2.41-16.87-3.51,0-16.87,9.73-16.87,22.89"/></svg>