<?xml version="1.0" encoding="utf-8"?>
<!-- Generator: Adobe Illustrator 22.0.1, SVG Export Plug-In . SVG Version: 6.00 Build 0)  -->
<svg version="1.1" id="Слой_1" xmlns="http://www.w3.org/2000/svg" xmlns:xlink="http://www.w3.org/1999/xlink" x="0px" y="0px"
	 viewBox="0 0 1057 1007" style="enable-background:new 0 0 1057 1007;" xml:space="preserve">
<style type="text/css">
	.st0{enable-background:new    ;}
	.st1{fill:none;stroke:#010202;stroke-width:18.1727;}
	.st2{fill:#010202;}
</style>
<g id="Контур_8">
	<image style="overflow:visible;" width="434" height="543" xlink:href="88C2193.png"  transform="matrix(1 0 0 1 186 104)">
	</image>
</g>
<g id="Контур_9">
	<image style="overflow:visible;" width="769" height="891" xlink:href="88C2191.png"  transform="matrix(1 0 0 1 300 106)">
	</image>
</g>
<image style="overflow:visible;" width="430" height="145" xlink:href="88C2197.png"  transform="matrix(1 0 0 1 165 620)">
</image>
<image style="overflow:visible;" width="236" height="136" xlink:href="88C2190.png"  transform="matrix(1 0 0 1 8 625)">
</image>
<g class="st0">
	<image style="overflow:visible;" width="109" height="130" xlink:href="88C219E.png"  transform="matrix(1 0 0 1 470 707)">
	</image>
</g>
<image style="overflow:visible;" width="110" height="130" xlink:href="88C219F.png"  transform="matrix(1 0 0 1 375 707)">
</image>
<image style="overflow:visible;" width="110" height="130" xlink:href="88C2192.png"  transform="matrix(1 0 0 1 282 707)">
</image>
<image style="overflow:visible;" width="110" height="130" xlink:href="88C2195.png"  transform="matrix(1 0 0 1 189 707)">
</image>
<image style="overflow:visible;" width="132" height="132" xlink:href="88C2196.png"  transform="matrix(1 0 0 1 85 706)">
</image>
<image style="overflow:visible;" width="124" height="132" xlink:href="3C40DA40.png"  transform="matrix(1 0 0 1 -3 706)">
</image>
<g id="Контур_7_1_">
	<image style="overflow:visible;" width="755" height="955" xlink:href="3C40DA47.png"  transform="matrix(1 0 0 1 242 -23)">
	</image>
</g>
<g id="Сгруппировать_82_1_" transform="translate(-164.715 -49.989)">
	<g id="Сгруппировать_74_1_" transform="translate(265.136 70.989)">
		<path id="Контур_11_1_" class="st1" d="M242.4,807.1c29.2,29.2,124.2,111.4,254.5,121.9s235.6-60.9,264-78.5
			c165.6-112.5,184.4-316.1,143.7-453.6c-17.5-59.1-61.4-136.9-116.6-181.2c-50-44.8-145.8-83.3-170.8-85.4"/>
		<path id="Контур_10_1_" class="st1" d="M135,588.5c0,0-24-192.7,83.3-319.7s265.6-140.6,265.6-140.6"/>
		<path id="Контур_7_3_" class="st2" d="M490.8,37c0,39.8,17.1,86-1.2,125.2c-7.1,15-24.4,15.6-55.7,32.7
			c-114.6,63-63.9,98.7-111.3,120.2c-6.8,2.9-12.4,5-18.9,8.2c-6.8,3.2-12.4,6.2-19.7,9.7c-53.3,26.8-35.3,19.7-72.5,43.3
			c-20.9,13.3-52.1,11.8-4.1,60.1c9.9,9.9,20.9,18.7,32.7,26.2c58.6,39.5,91,38.3,153.2,26.2c39.9-7.4,78.5-20.6,114.6-39.2
			l20.3,26.2c6.5,9.7,11.5,18.9,17.1,29.2c29.8,54.2,23.9,65.4,23.9,129.9c0,33-31.2,235.9-12.7,235.9
			c175,0,364.4-273.1,278.1-433.9c-5.9-10.9-12.7-20-19.7-30.6L709,253c-10-13-37.7-34.5-53-48c-4.7-4.1-8.8-7.4-13.8-11.5
			c-8.8-7.4-5.6-3.5-11.5-13.5c-3.2-5.6-5.6-10.6-9.1-16.2c-27.4-42.7-23.6-35.3-58-72.5c-8.8-9.4-38.3-50.7-38.3-64.8
			c0-8.2,15.6-29.4-4.1-29.4C514.3-3,490.8,14.1,490.8,37z"/>
	</g>
	<g id="Сгруппировать_76_1_" transform="translate(194.715 241.323)">
		<g class="st0">
			<path class="st2" d="M62.8,513c0,9.8-8.3,19-20.7,19H15.6v-62.2H36c11.3,0,19.5,7.6,19.5,16.2c0,6.4-4.2,11-6.8,11
				C55.4,496.9,62.8,503.6,62.8,513z M35.5,484.1h-4.1v9.8h3.9c3.6,0,6.3-1.8,6.3-5C41.7,485.9,39.1,484.1,35.5,484.1z M47,511
				c0-3.6-2.6-5.8-7.3-5.8l-8.3,0v11.8h8.1C43.4,516.9,47,515.1,47,511z"/>
			<path class="st2" d="M110.1,516.4v15.5H69.8v-62.2h16.5v46.7H110.1z"/>
			<path class="st2" d="M157,524.7h-23.2l-3.2,7.3h-18.1l28.9-63h7.8l28.9,63h-18.1L157,524.7z M151.8,512.6l-6.4-14.7l-6.4,14.7
				H151.8z"/>
		</g>
	</g>
	<g id="Сгруппировать_77_1_" transform="translate(242.997 241.323)">
		<g class="st0">
			<path class="st2" d="M126.5,501.5c0-18.6,15.1-33,34.7-33c8.1,0.1,16.8,3.7,23.3,9.5l-9.6,12.3c-3.9-3.5-9-5.8-13.6-5.8
				c-9.7,0-17.8,7.4-17.8,17c0,9.8,8.4,16.9,17.4,16.9c5.3,0,10-2.5,14.1-6.1l9.5,12.7c-6,5.5-14,9.3-23.6,9.3
				C143.1,534.4,126.5,521.2,126.5,501.5z"/>
			<path class="st2" d="M224.1,532.9L208.2,509v23.9h-16.7V470h16.7v23.5l14.6-23.5H242l-19.3,30.7l21.7,32.3H224.1z"/>
			<path class="st2" d="M329.8,501.6c0,19.5-13.1,31.4-34.5,31.4h-20.5V470l20.5,0C316.7,469.9,329.8,481.9,329.8,501.6z
				 M313.1,501.5c0-9.9-6.9-15.9-18.2-15.9h-3.8v31.6h4C306.2,517.2,313.1,511.3,313.1,501.5z"/>
			<path class="st2" d="M335.3,501.6c0-18.9,15-33.2,34.6-33.2s34.6,14.3,34.6,33.2c0,18.7-15,33-34.6,33
				C350.2,534.5,335.3,520.3,335.3,501.6z M387.5,501.4c0-9.7-7.7-17.2-17.6-17.2s-17.6,7.5-17.6,17.2c0,9.7,7.7,17.1,17.6,17.1
				S387.5,511.1,387.5,501.4z"/>
			<path class="st2" d="M477.3,502.9c0,19.1-14.4,31.5-32.3,31.5c-20,0-35.1-14.9-35.1-32.9c0-18,15.2-33.1,34.7-33.1
				c8,0.1,17.3,3.5,22.5,8.3l-9.3,12.7c-3.5-3.3-8.6-5.4-13.2-5.4c-9.4,0-17.6,7.7-17.6,17.4c0,8.8,7.1,17.4,18.7,17.4
				c7.6,0,13-3.7,13.3-9.7h-14.4v-12.5h32.3C477.1,498.9,477.3,500.9,477.3,502.9z"/>
		</g>
	</g>
	<g id="Сгруппировать_78_1_" transform="translate(194.715 261.566)">
		<g class="st0">
			<path class="st2" d="M6.3,560.6c0-14.5,12.1-26.7,26.6-26.7c6.7,0.1,12.8,2.9,17.9,7.9l-4.7,6.4c-3.6-3.6-8.3-6-13.3-6
				c-9.3,0-18.2,8.2-18.2,18.5c0,10.4,9,18.4,18.3,18.4c5.3,0,9.8-2.6,13.3-6.1l4.7,6.5c-4.4,4.4-10.1,7.7-17.8,7.7
				C18.4,587.1,6.3,575.1,6.3,560.6z"/>
		</g>
	</g>
	<g id="Сгруппировать_79_1_" transform="translate(218.943 260.566)">
		<g class="st0">
			<path class="st2" d="M70.1,561.6c0-14.7,11.9-26.7,26.6-26.7c14.6,0,26.6,12,26.6,26.7c0,14.6-12,26.5-26.7,26.5
				C82.1,588.1,70.1,576.2,70.1,561.6z M115.2,561.5c0-10.2-8.3-18.5-18.5-18.5c-10.2,0-18.4,8.3-18.4,18.5
				c0,10.1,8.3,18.4,18.4,18.4C106.8,579.9,115.2,571.7,115.2,561.5z"/>
		</g>
	</g>
	<g id="Сгруппировать_80_1_" transform="translate(247.986 267.566)">
		<g class="st0">
			<path class="st2" d="M153.5,536.7v13.8H173v8h-19.5v21.8h-8.1v-51.7h30.7v8H153.5z"/>
		</g>
	</g>
	<g id="Сгруппировать_81_1_" transform="translate(274.541 267.566)">
		<g class="st0">
			<path class="st2" d="M219.9,536.7v13.8h19.5v8h-19.5v21.8h-8.1v-51.7h30.7v8H219.9z"/>
		</g>
	</g>
	<g id="Сгруппировать_73_1_" transform="translate(302.095 264.566)">
		<g class="st0">
			<path class="st2" d="M285.2,539.8v13.2h19.5v8h-19.5v14.2h22.6v8h-30.7v-51.5h30.7v8H285.2z"/>
		</g>
	</g>
	<g id="Сгруппировать_94_1_" transform="translate(149.281 -187.343)">
		<g class="st0">
			<path class="st2" d="M532.5,991.7v13.2H552v8h-19.5v14.2h22.6v8h-30.7v-51.5h30.7v8H532.5z"/>
		</g>
	</g>
</g>
</svg>
